# xmcd
#
# Track frame offsets: 
#        150
#        19024
#        33922
#        49233
#        63892
#        78918
#        94141
#        108177
#        122694
#        140067
#
# Disc length: 2079 seconds
#
# Revision: 8
# Processed by: cddbd v1.5.2PL0 Copyright (c) Steve Scherf et al.
# Submitted via: ExactAudioCopy v1.1
#
DISCID=7b081d0a
DTITLE=Joe Nichols - Joe Nichols
DYEAR=1996
DGENRE=Country
TTITLE0=Leave The Past Behind
TTITLE1=She Could Care Less
TTITLE2=In Spite Of Myself
TTITLE3=Six Of One, Half A Dozen (Of The Other)
TTITLE4=To Tell You The Truth, I Lied
TTITLE5=Independent Girl
TTITLE6=I Hate The Way I Love You
TTITLE7=Wal-Mart Parking Lot
TTITLE8=Old Cheyenne
TTITLE9=I'm Not That Kind Of Guy
EXTD=YEAR: 1996
EXTT0=
EXTT1=
EXTT2=
EXTT3=
EXTT4=
EXTT5=
EXTT6=
EXTT7=
EXTT8=
EXTT9=
PLAYORDER=
